<svg width="305" height="322" viewBox="0 0 305 322" fill="none" xmlns="http://www.w3.org/2000/svg">
<g filter="url(#filter0_d)">
<path d="M119.5 66.1053C119.5 70.6686 115.806 74.3684 111.25 74.3684C106.694 74.3684 103 70.6686 103 66.1053C103 61.542 106.694 57.8421 111.25 57.8421C115.806 57.8421 119.5 61.542 119.5 66.1053Z" fill="#F2F2F2"/>
<path d="M190.451 254.504L160.75 276.816V293.342L188.247 314H202V289.211C202 287.02 202.87 284.918 204.417 283.368L212.667 275.105L224.333 286.79L218.5 292.632V314H231.04L259.75 278.046V249.844L254.65 239.632H243.25V223.105H259.75C262.892 223.089 265.772 224.86 267.174 227.677L272.024 237.392L301 225.776V169.685L285.547 159.372L273.833 171.105C272.286 172.655 270.187 173.526 268 173.526H251.5C248.358 173.542 245.478 171.771 244.076 168.955L237.953 156.693C236.978 156.859 235.991 156.96 235 157C223.165 157.061 212.929 148.757 210.52 137.153C208.115 125.545 214.206 113.848 225.086 109.184C235.967 104.52 248.62 108.18 255.343 117.932C262.07 127.688 260.999 140.837 252.785 149.374L256.6 157H264.584L276.25 145.315V62.9501L253.152 51.3784L232.607 71.9556C231.052 73.509 228.945 74.3765 226.75 74.3684H216.981C212.965 85.7504 201.343 92.5813 189.464 90.5397C177.58 88.4981 168.899 78.1772 168.899 66.1053C168.899 54.0333 177.58 43.7124 189.464 41.6708C201.343 39.6293 212.965 46.4601 216.981 57.8421H223.334L243.25 37.8943V20.6579L215.753 0H188.247L160.75 20.6579V132.211H177.48C179.667 132.211 181.766 133.082 183.313 134.631L199.583 150.928C201.13 152.477 202 154.579 202 156.77V186.159L203.14 187.301C207.479 183.758 212.901 181.814 218.5 181.789C232.168 181.789 243.25 192.889 243.25 206.579C243.25 220.269 232.168 231.368 218.5 231.368C204.832 231.368 193.75 220.269 193.75 206.579C193.758 204.957 193.919 203.343 194.237 201.753L187.917 195.423C186.37 193.874 185.5 191.771 185.5 189.581V160.191L174.064 148.737H160.75V256.158L177.25 243.763V231.368H193.75V247.895C193.75 250.497 192.525 252.946 190.451 254.504Z" fill="#F2F2F2"/>
<path d="M78.25 123.947C78.25 128.511 74.556 132.211 70 132.211C65.444 132.211 61.75 128.511 61.75 123.947C61.75 119.384 65.444 115.684 70 115.684C74.556 115.684 78.25 119.384 78.25 123.947Z" fill="#F2F2F2"/>
<path d="M53.5 165.263H37C34.8126 165.263 32.7139 164.392 31.167 162.842L18.2723 149.927L4 154.696V225.756L33.8499 237.731L46.6357 218.518C48.1665 216.222 50.7406 214.842 53.5 214.842H63.2687C67.2849 203.46 78.9066 196.629 90.7861 198.671C102.67 200.712 111.351 211.033 111.351 223.105C111.351 235.177 102.67 245.498 90.7861 247.54C78.9066 249.581 67.2849 242.75 63.2687 231.368H57.915L45.25 250.372V278.022L73.9598 314H78.25V292.632L72.417 286.79L84.083 275.105L92.333 283.368C93.8799 284.918 94.75 287.02 94.75 289.211V314H116.753L138.747 297.474L114.549 279.293C112.475 277.736 111.25 275.287 111.25 272.684V256.158H127.75V268.553L144.25 280.947V132.211H130.936L119.5 143.665V173.054C119.5 175.245 118.63 177.347 117.083 178.897L108.716 187.285L97.0502 175.592L103 169.633V140.244C103 138.053 103.87 135.951 105.417 134.401L121.687 118.105C123.234 116.556 125.333 115.684 127.52 115.684H144.25V20.6579L116.753 0H89.2473L61.75 20.6579V37.8943L81.666 57.8421H88.0187C92.0349 46.4601 103.657 39.6293 115.536 41.6708C127.42 43.7124 136.101 54.0333 136.101 66.1053C136.101 78.1772 127.42 88.4981 115.536 90.5397C103.657 92.5813 92.0349 85.7504 88.0187 74.3684H78.25C76.0626 74.3684 73.9639 73.4969 72.417 71.9476L51.8484 51.3704L28.75 62.9501V137.052L40.416 148.737H48.4001L52.215 141.111C44.0939 132.618 43.0626 119.578 49.7456 109.91C56.4286 100.247 68.9808 96.6281 79.7727 101.252C90.5646 105.88 96.6111 117.476 94.2424 128.991C91.8738 140.506 81.7385 148.761 70 148.737C68.9969 148.696 67.9979 148.596 67.007 148.43L60.9242 160.692C59.5223 163.508 56.6421 165.279 53.5 165.263Z" fill="#F2F2F2"/>
<path d="M94.75 223.105C94.75 227.669 91.056 231.368 86.5 231.368C81.944 231.368 78.25 227.669 78.25 223.105C78.25 218.542 81.944 214.842 86.5 214.842C91.056 214.842 94.75 218.542 94.75 223.105Z" fill="#F2F2F2"/>
<path d="M243.25 132.211C243.25 136.774 239.556 140.474 235 140.474C230.444 140.474 226.75 136.774 226.75 132.211C226.75 127.647 230.444 123.947 235 123.947C239.556 123.947 243.25 127.647 243.25 132.211Z" fill="#F2F2F2"/>
<path d="M226.75 206.579C226.75 211.142 223.056 214.842 218.5 214.842C213.944 214.842 210.25 211.142 210.25 206.579C210.25 202.016 213.944 198.316 218.5 198.316C223.056 198.316 226.75 202.016 226.75 206.579Z" fill="#F2F2F2"/>
<path d="M202 66.1053C202 70.6686 198.306 74.3684 193.75 74.3684C189.194 74.3684 185.5 70.6686 185.5 66.1053C185.5 61.542 189.194 57.8421 193.75 57.8421C198.306 57.8421 202 61.542 202 66.1053Z" fill="#F2F2F2"/>
</g>
<defs>
<filter id="filter0_d" x="0" y="0" width="305" height="322" filterUnits="userSpaceOnUse" color-interpolation-filters="sRGB">
<feFlood flood-opacity="0" result="BackgroundImageFix"/>
<feColorMatrix in="SourceAlpha" type="matrix" values="0 0 0 0 0 0 0 0 0 0 0 0 0 0 0 0 0 0 127 0"/>
<feOffset dy="4"/>
<feGaussianBlur stdDeviation="2"/>
<feColorMatrix type="matrix" values="0 0 0 0 0 0 0 0 0 0 0 0 0 0 0 0 0 0 0.25 0"/>
<feBlend mode="normal" in2="BackgroundImageFix" result="effect1_dropShadow"/>
<feBlend mode="normal" in="SourceGraphic" in2="effect1_dropShadow" result="shape"/>
</filter>
</defs>
</svg>
