<?xml version="1.0"?>
<svg xmlns="http://www.w3.org/2000/svg" height="512px" viewBox="0 -77 512 512" width="512px"><g><path d="m59.734375 17.066406h-51.199219c-4.710937 0-8.535156-3.824218-8.535156-8.53125 0-4.710937 3.824219-8.535156 8.535156-8.535156h51.199219c4.710937 0 8.53125 3.824219 8.53125 8.535156 0 4.707032-3.820313 8.53125-8.53125 8.53125zm0 0" data-original="#000000" class="active-path" data-old_color="#000000" fill="#FFFFFF"/><path d="m59.734375 358.398438c-4.710937 0-8.535156-3.820313-8.535156-8.53125v-341.332032c0-4.710937 3.824219-8.535156 8.535156-8.535156s8.53125 3.824219 8.53125 8.535156v341.332032c0 4.710937-3.820313 8.53125-8.53125 8.53125zm0 0" data-original="#000000" class="active-path" data-old_color="#000000" fill="#FFFFFF"/><path d="m59.734375 179.199219h-34.132813c-4.710937 0-8.535156-3.820313-8.535156-8.53125v-68.269531c0-4.707032 3.824219-8.53125 8.535156-8.53125h34.132813c4.710937 0 8.53125 3.824218 8.53125 8.53125v68.269531c0 4.710937-3.820313 8.53125-8.53125 8.53125zm-25.601563-17.066407h17.066407v-51.199218h-17.066407zm0 0" data-original="#000000" class="active-path" data-old_color="#000000" fill="#FFFFFF"/><path d="m59.734375 315.734375h-34.132813c-4.710937 0-8.535156-3.824219-8.535156-8.535156v-68.265625c0-4.710938 3.824219-8.535156 8.535156-8.535156h34.132813c4.710937 0 8.53125 3.824218 8.53125 8.535156v68.265625c0 4.710937-3.820313 8.535156-8.53125 8.535156zm-25.601563-17.066406h17.066407v-51.203125h-17.066407zm0 0" data-original="#000000" class="active-path" data-old_color="#000000" fill="#FFFFFF"/><path d="m307.199219 358.398438h-187.734375c-4.707032 0-8.53125-3.820313-8.53125-8.53125v-59.734376c0-4.710937 3.824218-8.53125 8.53125-8.53125h187.734375c4.710937 0 8.535156 3.820313 8.535156 8.53125v59.734376c0 4.710937-3.824219 8.53125-8.535156 8.53125zm-179.199219-17.066407h170.667969v-42.664062h-170.667969zm0 0" data-original="#000000" class="active-path" data-old_color="#000000" fill="#FFFFFF"/><path d="m162.132812 358.398438c-4.710937 0-8.53125-3.820313-8.53125-8.53125v-25.601563c0-4.710937 3.820313-8.53125 8.53125-8.53125 4.710938 0 8.535157 3.820313 8.535157 8.53125v25.601563c0 4.710937-3.824219 8.53125-8.535157 8.53125zm0 0" data-original="#000000" class="active-path" data-old_color="#000000" fill="#FFFFFF"/><path d="m264.535156 358.398438c-4.710937 0-8.535156-3.820313-8.535156-8.53125v-25.601563c0-4.710937 3.824219-8.53125 8.535156-8.53125 4.707032 0 8.53125 3.820313 8.53125 8.53125v25.601563c0 4.710937-3.824218 8.53125-8.53125 8.53125zm0 0" data-original="#000000" class="active-path" data-old_color="#000000" fill="#FFFFFF"/><path d="m392.535156 358.398438c-4.710937 0-8.535156-3.820313-8.535156-8.53125v-25.601563c0-4.710937 3.824219-8.53125 8.535156-8.53125 4.707032 0 8.53125 3.820313 8.53125 8.53125v25.601563c0 4.710937-3.824218 8.53125-8.53125 8.53125zm0 0" data-original="#000000" class="active-path" data-old_color="#000000" fill="#FFFFFF"/><path d="m230.398438 358.398438c-4.707032 0-8.53125-3.820313-8.53125-8.53125v-25.601563c0-4.710937 3.824218-8.53125 8.53125-8.53125 4.710937 0 8.535156 3.820313 8.535156 8.53125v25.601563c0 4.710937-3.824219 8.53125-8.535156 8.53125zm0 0" data-original="#000000" class="active-path" data-old_color="#000000" fill="#FFFFFF"/><path d="m196.265625 358.398438c-4.710937 0-8.53125-3.820313-8.53125-8.53125v-25.601563c0-4.710937 3.820313-8.53125 8.53125-8.53125s8.535156 3.820313 8.535156 8.53125v25.601563c0 4.710937-3.824219 8.53125-8.535156 8.53125zm0 0" data-original="#000000" class="active-path" data-old_color="#000000" fill="#FFFFFF"/><path d="m426.667969 358.398438h-68.269531c-4.707032 0-8.53125-3.820313-8.53125-8.53125v-59.734376c0-4.710937 3.824218-8.53125 8.53125-8.53125h68.269531c4.710937 0 8.53125 3.820313 8.53125 8.53125v59.734376c0 4.710937-3.820313 8.53125-8.53125 8.53125zm-59.734375-17.066407h51.199218v-42.664062h-51.199218zm0 0" data-original="#000000" class="active-path" data-old_color="#000000" fill="#FFFFFF"/><path d="m59.734375 76.800781h-34.132813c-4.710937 0-8.535156-3.824219-8.535156-8.535156s3.824219-8.53125 8.535156-8.53125h34.132813c4.710937 0 8.53125 3.820313 8.53125 8.53125s-3.820313 8.535156-8.53125 8.535156zm0 0" data-original="#000000" class="active-path" data-old_color="#000000" fill="#FFFFFF"/><path d="m59.734375 213.332031h-34.132813c-4.710937 0-8.535156-3.820312-8.535156-8.53125 0-4.710937 3.824219-8.535156 8.535156-8.535156h34.132813c4.710937 0 8.53125 3.824219 8.53125 8.535156 0 4.710938-3.820313 8.53125-8.53125 8.53125zm0 0" data-original="#000000" class="active-path" data-old_color="#000000" fill="#FFFFFF"/><path d="m179.199219 264.535156c-51.753907 0-93.867188-42.113281-93.867188-93.867187 0-51.757813 42.113281-93.867188 93.867188-93.867188 51.753906 0 93.867187 42.109375 93.867187 93.867188 0 51.753906-42.113281 93.867187-93.867187 93.867187zm0-170.667968c-42.351563 0-76.800781 34.457031-76.800781 76.800781 0 42.339843 34.449218 76.796875 76.800781 76.796875 42.351562 0 76.800781-34.457032 76.800781-76.796875 0-42.34375-34.449219-76.800781-76.800781-76.800781zm0 0" data-original="#000000" class="active-path" data-old_color="#000000" fill="#FFFFFF"/><path d="m179.199219 204.800781c-18.824219 0-34.132813-15.308593-34.132813-34.132812s15.308594-34.132813 34.132813-34.132813 34.132812 15.308594 34.132812 34.132813-15.308593 34.132812-34.132812 34.132812zm0-51.199219c-9.410157 0-17.066407 7.652344-17.066407 17.066407 0 9.410156 7.65625 17.066406 17.066407 17.066406 9.414062 0 17.066406-7.65625 17.066406-17.066406 0-9.414063-7.652344-17.066407-17.066406-17.066407zm0 0" data-original="#000000" class="active-path" data-old_color="#000000" fill="#FFFFFF"/><path d="m460.808594 298.667969h-401.074219c-4.710937 0-8.535156-3.824219-8.535156-8.535157v-238.933593c0-4.710938 3.824219-8.53125 8.535156-8.53125h401.074219c28.226562 0 51.191406 22.960937 51.191406 51.191406v153.625c0 28.21875-22.964844 51.183594-51.191406 51.183594zm-392.542969-17.066407h392.542969c18.816406 0 34.125-15.308593 34.125-34.125v-153.617187c0-18.816406-15.308594-34.125-34.125-34.125h-392.542969zm0 0" data-original="#000000" class="active-path" data-old_color="#000000" fill="#FFFFFF"/><path d="m179.199219 153.601562c-4.710938 0-8.53125-3.824218-8.53125-8.535156 0-18.378906-23.460938-34.132812-42.667969-34.132812-4.710938 0-8.535156-3.824219-8.535156-8.535156 0-4.707032 3.824218-8.53125 8.535156-8.53125 27.621094 0 59.734375 22.367187 59.734375 51.199218 0 4.710938-3.824219 8.535156-8.535156 8.535156zm0 0" data-original="#000000" class="active-path" data-old_color="#000000" fill="#FFFFFF"/><path d="m230.398438 247.464844c-27.621094 0-59.730469-22.363282-59.730469-51.199219 0-4.710937 3.820312-8.53125 8.53125-8.53125 4.710937 0 8.535156 3.820313 8.535156 8.53125 0 18.382813 23.457031 34.132813 42.664063 34.132813 4.710937 0 8.535156 3.824218 8.535156 8.535156 0 4.710937-3.824219 8.53125-8.535156 8.53125zm0 0" data-original="#000000" class="active-path" data-old_color="#000000" fill="#FFFFFF"/><path d="m110.933594 230.398438c-4.710938 0-8.535156-3.820313-8.535156-8.53125 0-27.621094 22.367187-59.734376 51.203124-59.734376 4.707032 0 8.53125 3.824219 8.53125 8.535157 0 4.710937-3.824218 8.53125-8.53125 8.53125-18.382812 0-34.136718 23.46875-34.136718 42.667969 0 4.710937-3.820313 8.53125-8.53125 8.53125zm0 0" data-original="#000000" class="active-path" data-old_color="#000000" fill="#FFFFFF"/><path d="m204.800781 179.199219c-4.710937 0-8.535156-3.820313-8.535156-8.53125 0-4.710938 3.824219-8.535157 8.535156-8.535157 18.378907 0 34.132813-23.464843 34.132813-42.667968 0-4.707032 3.824218-8.53125 8.53125-8.53125 4.710937 0 8.535156 3.824218 8.535156 8.53125 0 27.625-22.367188 59.734375-51.199219 59.734375zm0 0" data-original="#000000" class="active-path" data-old_color="#000000" fill="#FFFFFF"/><path d="m94.730469 167.132812c-2.1875 0-4.371094-.835937-6.035157-2.5-3.335937-3.328124-3.335937-8.730468 0-12.066406 9.496094-9.496094 23.773438-16.210937 38.195313-17.960937 16.28125-2.007813 30.582031 2.253906 40.25 11.929687 3.328125 3.335938 3.328125 8.738282 0 12.066406-3.335937 3.335938-8.738281 3.335938-12.0625 0-5.796875-5.796874-15.300781-8.363281-26.121094-7.058593-10.761719 1.304687-21.292969 6.203125-28.179687 13.089843-1.679688 1.664063-3.871094 2.5-6.046875 2.5zm0 0" data-original="#000000" class="active-path" data-old_color="#000000" fill="#FFFFFF"/><path d="m223.828125 207.207031c-13.070313 0-24.445313-4.285156-32.5625-12.40625-3.328125-3.339843-3.328125-8.738281 0-12.066406 3.335937-3.339844 8.738281-3.339844 12.066406 0 5.792969 5.792969 15.308594 8.378906 26.121094 7.054687 10.761719-1.304687 21.289063-6.203124 28.175781-13.089843 3.335938-3.335938 8.738282-3.335938 12.066406 0 3.335938 3.328125 3.335938 8.730469 0 12.066406-9.496093 9.496094-23.773437 16.214844-38.195312 17.964844-2.601562.324219-5.171875.476562-7.671875.476562zm0 0" data-original="#000000" class="active-path" data-old_color="#000000" fill="#FFFFFF"/><path d="m167.132812 263.671875c-2.183593 0-4.367187-.835937-6.03125-2.5-19.535156-19.535156-26.421874-58.054687-6.035156-78.4375 3.335938-3.339844 8.738282-3.339844 12.066406 0 3.335938 3.328125 3.335938 8.726563 0 12.066406-12.996093 12.996094-7.550781 40.726563 6.035157 54.304688 3.335937 3.335937 3.335937 8.730469 0 12.066406-1.664063 1.671875-3.847657 2.5-6.035157 2.5zm0 0" data-original="#000000" class="active-path" data-old_color="#000000" fill="#FFFFFF"/><path d="m197.300781 161.101562c-2.1875 0-4.371093-.835937-6.035156-2.5-3.335937-3.328124-3.335937-8.730468 0-12.066406 12.996094-12.996094 7.550781-40.730468-6.03125-54.308594-3.335937-3.335937-3.335937-8.726562 0-12.0625 3.328125-3.339843 8.738281-3.339843 12.066406 0 19.53125 19.53125 26.417969 58.050782 6.03125 78.4375-1.664062 1.664063-3.847656 2.5-6.03125 2.5zm0 0" data-original="#000000" class="active-path" data-old_color="#000000" fill="#FFFFFF"/><path d="m384 264.535156c-51.753906 0-93.867188-42.113281-93.867188-93.867187 0-51.757813 42.113282-93.867188 93.867188-93.867188s93.867188 42.109375 93.867188 93.867188c0 51.753906-42.113282 93.867187-93.867188 93.867187zm0-170.667968c-42.351562 0-76.800781 34.457031-76.800781 76.800781 0 42.339843 34.449219 76.796875 76.800781 76.796875s76.800781-34.457032 76.800781-76.796875c0-42.34375-34.449219-76.800781-76.800781-76.800781zm0 0" data-original="#000000" class="active-path" data-old_color="#000000" fill="#FFFFFF"/><path d="m384 204.800781c-18.824219 0-34.132812-15.308593-34.132812-34.132812s15.308593-34.132813 34.132812-34.132813 34.132812 15.308594 34.132812 34.132813-15.308593 34.132812-34.132812 34.132812zm0-51.199219c-9.414062 0-17.066406 7.652344-17.066406 17.066407 0 9.410156 7.652344 17.066406 17.066406 17.066406s17.066406-7.65625 17.066406-17.066406c0-9.414063-7.652344-17.066407-17.066406-17.066407zm0 0" data-original="#000000" class="active-path" data-old_color="#000000" fill="#FFFFFF"/><path d="m384 153.601562c-4.710938 0-8.535156-3.824218-8.535156-8.535156 0-18.378906-23.457032-34.132812-42.664063-34.132812-4.710937 0-8.535156-3.824219-8.535156-8.535156 0-4.707032 3.824219-8.53125 8.535156-8.53125 27.621094 0 59.734375 22.367187 59.734375 51.199218 0 4.710938-3.824218 8.535156-8.535156 8.535156zm0 0" data-original="#000000" class="active-path" data-old_color="#000000" fill="#FFFFFF"/><path d="m435.199219 247.464844c-27.621094 0-59.734375-22.363282-59.734375-51.199219 0-4.710937 3.824218-8.53125 8.535156-8.53125s8.535156 3.820313 8.535156 8.53125c0 18.382813 23.457032 34.132813 42.664063 34.132813 4.710937 0 8.535156 3.824218 8.535156 8.535156 0 4.710937-3.824219 8.53125-8.535156 8.53125zm0 0" data-original="#000000" class="active-path" data-old_color="#000000" fill="#FFFFFF"/><path d="m315.734375 230.398438c-4.710937 0-8.535156-3.820313-8.535156-8.53125 0-27.621094 22.367187-59.734376 51.199219-59.734376 4.710937 0 8.535156 3.824219 8.535156 8.535157 0 4.710937-3.824219 8.53125-8.535156 8.53125-18.378907 0-34.132813 23.46875-34.132813 42.667969 0 4.710937-3.820313 8.53125-8.53125 8.53125zm0 0" data-original="#000000" class="active-path" data-old_color="#000000" fill="#FFFFFF"/><path d="m409.601562 179.199219c-4.710937 0-8.535156-3.820313-8.535156-8.53125 0-4.710938 3.824219-8.535157 8.535156-8.535157 18.378907 0 34.132813-23.464843 34.132813-42.667968 0-4.707032 3.820313-8.53125 8.53125-8.53125s8.535156 3.824218 8.535156 8.53125c0 27.625-22.367187 59.734375-51.199219 59.734375zm0 0" data-original="#000000" class="active-path" data-old_color="#000000" fill="#FFFFFF"/><path d="m299.527344 167.132812c-2.183594 0-4.367188-.835937-6.03125-2.5-3.335938-3.328124-3.335938-8.730468 0-12.066406 9.496094-9.496094 23.773437-16.210937 38.195312-17.960937 16.28125-2.007813 30.582032 2.253906 40.25 11.929687 3.328125 3.335938 3.328125 8.738282 0 12.066406-3.335937 3.335938-8.738281 3.335938-12.066406 0-5.792969-5.796874-15.308594-8.363281-26.121094-7.058593-10.757812 1.304687-21.289062 6.203125-28.175781 13.089843-1.679687 1.664063-3.875 2.5-6.050781 2.5zm0 0" data-original="#000000" class="active-path" data-old_color="#000000" fill="#FFFFFF"/><path d="m428.628906 207.207031c-13.074218 0-24.449218-4.285156-32.5625-12.40625-3.328125-3.339843-3.328125-8.738281 0-12.066406 3.335938-3.339844 8.738282-3.339844 12.066406 0 5.792969 5.792969 15.300782 8.378906 26.121094 7.054687 10.757813-1.304687 21.289063-6.203124 28.175782-13.089843 3.335937-3.335938 8.738281-3.335938 12.066406 0 3.335937 3.328125 3.335937 8.730469 0 12.066406-9.496094 9.496094-23.773438 16.214844-38.195313 17.964844-2.601562.324219-5.171875.476562-7.671875.476562zm0 0" data-original="#000000" class="active-path" data-old_color="#000000" fill="#FFFFFF"/><path d="m371.933594 263.671875c-2.183594 0-4.367188-.835937-6.03125-2.5-19.535156-19.535156-26.421875-58.054687-6.035156-78.4375 3.335937-3.339844 8.738281-3.339844 12.066406 0 3.335937 3.328125 3.335937 8.726563 0 12.066406-12.996094 12.996094-7.550782 40.726563 6.035156 54.304688 3.335938 3.335937 3.335938 8.730469 0 12.066406-1.664062 1.671875-3.851562 2.5-6.035156 2.5zm0 0" data-original="#000000" class="active-path" data-old_color="#000000" fill="#FFFFFF"/><path d="m402.097656 161.101562c-2.183594 0-4.367187-.835937-6.03125-2.5-3.335937-3.328124-3.335937-8.730468 0-12.066406 12.996094-12.996094 7.550782-40.730468-6.035156-54.308594-3.335938-3.335937-3.335938-8.726562 0-12.0625 3.328125-3.339843 8.738281-3.339843 12.066406 0 19.535156 19.53125 26.421875 58.050782 6.035156 78.4375-1.664062 1.664063-3.847656 2.5-6.035156 2.5zm0 0" data-original="#000000" class="active-path" data-old_color="#000000" fill="#FFFFFF"/></g> </svg>
