<?xml version="1.0"?>
<svg xmlns="http://www.w3.org/2000/svg" xmlns:xlink="http://www.w3.org/1999/xlink" version="1.1" viewBox="0 0 192 192" width="50px" height="50px"><g transform=""><g fill="none" fill-rule="nonzero" stroke="none" stroke-width="1" stroke-linecap="butt" stroke-linejoin="miter" stroke-miterlimit="10" stroke-dasharray="" stroke-dashoffset="0" font-family="none" font-weight="none" font-size="none" text-anchor="none" style="mix-blend-mode: normal"><path d="M0,192v-192h192v192z" fill="none"/><path d="" fill="none"/><path d="" fill="none"/><g fill="#ffffff"><g id="surface1"><path d="M76.8,34.56v19.2h-38.4v19.2h-19.2v19.2h-14.88c-1.86,0 -3.39,1.29 -3.72,3.12c-0.03,0.135 -0.6,3.345 -0.6,7.44c0,2.685 0.255,5.61 0.72,8.52c4.395,-1.05 12.45,-2.625 11.04,-7.8c7.575,8.775 25.755,6.12 30.36,1.8c5.145,7.455 35.115,4.605 37.2,-1.2c6.45,7.56 26.445,7.56 32.88,0c2.085,5.805 31.935,8.655 37.08,1.2c1.635,1.53 5.04,2.805 9,3.48c1.335,-2.535 2.565,-5.085 3.72,-7.8c24.39,-0.3 29.655,-17.835 29.88,-18.6c0.42,-1.47 -0.15,-2.985 -1.32,-3.96c-0.405,-0.345 -9.405,-7.65 -24,-5.16c-4.095,-13.335 -14.64,-19.41 -15.12,-19.68c-1.38,-0.78 -3.09,-0.66 -4.32,0.36c-0.39,0.315 -9.465,8.01 -8.04,23.76c0.36,3.96 1.395,7.455 3,10.56c-3.15,1.755 -8.565,3.96 -17.28,3.96h-1.92v-19.2h-19.2v-38.4zM158.28,108.72c-0.465,0.9 -1.065,1.77 -1.56,2.64h34.68c-4.17,-1.05 -13.125,-2.46 -11.64,-7.92c-4.905,5.67 -14.22,6.51 -21.48,5.28zM156.72,111.36h-156c0.93,5.64 2.85,11.55 5.76,17.28c20.85,4.905 42.735,-2.565 42.96,-2.64c2.01,-0.705 4.11,0.405 4.8,2.4c0.705,1.995 -0.285,4.23 -2.28,4.92c-0.735,0.255 -13.92,4.68 -30.12,4.68c-3.21,0 -6.585,-0.18 -9.96,-0.6c10.08,13.365 27.165,23.88 53.4,23.88c41.49,0 73.395,-17.625 91.44,-49.92zM0.72,111.36c-0.015,-0.06 0.015,-0.06 0,-0.12c-0.255,0.06 -0.495,0.06 -0.72,0.12zM84.48,42.24h11.52v11.52h-11.52zM46.08,61.44h11.52v11.52h-11.52zM65.28,61.44h11.52v11.52h-11.52zM84.48,61.44h11.52v11.52h-11.52zM26.88,80.64h11.52v11.52h-11.52zM46.08,80.64h11.52v11.52h-11.52zM65.28,80.64h11.52v11.52h-11.52zM84.48,80.64h11.52v11.52h-11.52zM103.68,80.64h11.52v11.52h-11.52zM61.44,119.04c0.495,0 1.005,0.075 1.44,0.24c-0.465,0.27 -0.84,0.735 -0.84,1.32c0,0.87 0.69,1.68 1.56,1.68c0.585,0 1.17,-0.36 1.44,-0.84c0.195,0.45 0.24,0.915 0.24,1.44c0,2.115 -1.725,3.84 -3.84,3.84c-2.115,0 -3.84,-1.725 -3.84,-3.84c0,-2.115 1.725,-3.84 3.84,-3.84z"/></g></g></g></g></svg>
