<svg width="136" height="1024" viewBox="0 0 136 1024" fill="none" xmlns="http://www.w3.org/2000/svg">
<g filter="url(#filter0_d)">
<line x1="78.8111" y1="303.915" x2="58.8111" y2="277.915" stroke="#C21264" stroke-width="3"/>
<line x1="78.8111" y1="249.915" x2="58.8111" y2="223.915" stroke="#C21264" stroke-width="3"/>
<line x1="78.8111" y1="195.915" x2="58.8111" y2="169.915" stroke="#C21264" stroke-width="3"/>
<line x1="78.8111" y1="141.915" x2="58.8111" y2="115.915" stroke="#C21264" stroke-width="3"/>
<line x1="78.8111" y1="87.9146" x2="58.8111" y2="61.9146" stroke="#C21264" stroke-width="3"/>
<line x1="78.8111" y1="33.9146" x2="58.8111" y2="7.91456" stroke="#C21264" stroke-width="3"/>
<line x1="78.8111" y1="357.915" x2="58.8111" y2="331.915" stroke="#C21264" stroke-width="3"/>
<line x1="78.8111" y1="411.915" x2="58.8111" y2="385.915" stroke="#C21264" stroke-width="3"/>
<line x1="78.8111" y1="465.915" x2="58.8111" y2="439.915" stroke="#C21264" stroke-width="3"/>
<line x1="78.8111" y1="573.915" x2="58.8111" y2="547.915" stroke="#C21264" stroke-width="3"/>
<line x1="78.8111" y1="519.915" x2="58.8111" y2="493.915" stroke="#C21264" stroke-width="3"/>
<line x1="78.8111" y1="948.915" x2="58.8111" y2="922.915" stroke="#C21264" stroke-width="3"/>
<line x1="78.8111" y1="1004.91" x2="58.8111" y2="978.915" stroke="#C21264" stroke-width="3"/>
<line x1="58.5" y1="6.45848e-09" x2="58.5" y2="597" stroke="#C21264" stroke-width="3"/>
<line x1="78.5" y1="6.45848e-09" x2="78.5" y2="597" stroke="#C21264" stroke-width="3"/>
<line x1="58.5" y1="905" x2="58.5" y2="1024" stroke="#C21264" stroke-width="3"/>
<line x1="78.5" y1="905" x2="78.5" y2="1024" stroke="#C21264" stroke-width="3"/>
<g clip-path="url(#clip0)">
<path d="M97.1446 891.67H38.8603C19.9466 891.67 4.55878 876.287 4.55878 857.373V815.741C4.55878 810.067 9.17366 805.452 14.8483 805.452H121.157C126.826 805.452 131.441 810.067 131.441 815.741V857.373C131.441 876.282 116.058 891.67 97.1446 891.67ZM14.8483 810.33C11.8693 810.33 9.44225 812.758 9.44225 815.736V857.368C9.44225 873.586 22.6374 886.781 38.8603 886.781H97.1446C113.363 886.781 126.558 873.586 126.558 857.368V815.736C126.558 812.758 124.136 810.33 121.157 810.33H14.8483Z" fill="#C21264"/>
<path d="M68.0001 867.824C56.5483 867.824 47.2355 858.511 47.2355 847.059C47.2355 835.607 56.5483 826.295 68.0001 826.295C79.4518 826.295 88.7646 835.607 88.7646 847.059C88.7646 858.511 79.447 867.824 68.0001 867.824ZM68.0001 831.178C59.244 831.178 52.119 838.303 52.119 847.059C52.119 855.815 59.244 862.94 68.0001 862.94C76.7562 862.94 83.8812 855.815 83.8812 847.059C83.8812 838.303 76.7562 831.178 68.0001 831.178Z" fill="#C21264"/>
<path d="M86.3229 908H49.6773C48.3294 908 47.2355 906.906 47.2355 905.558V889.228C47.2355 887.88 48.3294 886.786 49.6773 886.786H86.3229C87.6707 886.786 88.7646 887.88 88.7646 889.228V905.558C88.7646 906.906 87.6707 908 86.3229 908ZM52.119 903.117H83.8812V891.67H52.119V903.117Z" fill="#C21264"/>
</g>
<path d="M38.8554 613.33L97.1397 613.33C116.053 613.33 131.441 628.713 131.441 647.627L131.441 689.259C131.441 694.933 126.826 699.548 121.152 699.548L14.8434 699.548C9.17366 699.548 4.55878 694.933 4.55878 689.259L4.55878 647.627C4.55878 628.718 19.9417 613.33 38.8554 613.33ZM121.152 694.67C124.131 694.67 126.558 692.242 126.558 689.264L126.558 647.632C126.558 631.414 113.363 618.219 97.1397 618.219L38.8554 618.219C22.6374 618.219 9.44225 631.414 9.44226 647.632L9.44226 689.264C9.44226 692.242 11.8645 694.67 14.8434 694.67L121.152 694.67Z" fill="#C21264"/>
<path d="M96.2412 694.67C97.589 694.67 98.6829 695.763 98.6829 697.111L98.6829 742.791C98.6829 746.83 101.969 750.117 106.008 750.117L106.814 750.117C110.853 750.117 114.139 746.83 114.139 742.791L114.139 697.111C114.139 695.763 115.233 694.67 116.581 694.67C117.929 694.67 119.023 695.763 119.023 697.111L119.023 742.791C119.023 749.526 113.548 755 106.814 755L106.013 755C99.2787 755 93.8043 749.526 93.8043 742.791L93.8043 697.111C93.7994 695.763 94.8933 694.67 96.2412 694.67Z" fill="#C21264"/>
<path d="M19.4242 694.67C20.772 694.67 21.8659 695.763 21.8659 697.111L21.8659 742.791C21.8659 746.83 25.1525 750.117 29.1911 750.117L29.992 750.117C34.0306 750.117 37.3172 746.83 37.3172 742.791L37.3172 697.111C37.3172 695.763 38.4111 694.67 39.7589 694.67C41.1068 694.67 42.2007 695.763 42.2007 697.111L42.2007 742.791C42.2007 749.526 36.7263 755 29.992 755L29.1911 755C22.4568 755 16.9824 749.526 16.9824 742.791L16.9824 697.111C16.9824 695.763 18.0763 694.67 19.4242 694.67Z" fill="#C21264"/>
<path d="M49.6772 597L86.3228 597C87.6706 597 88.7645 598.094 88.7645 599.442L88.7645 615.772C88.7645 617.12 87.6706 618.214 86.3228 618.214L49.6772 618.214C48.3293 618.214 47.2354 617.12 47.2354 615.772L47.2354 599.442C47.2354 598.094 48.3293 597 49.6772 597ZM83.881 601.883L52.1189 601.883L52.1189 613.33L83.881 613.33L83.881 601.883Z" fill="#C21264"/>
<path d="M75.1103 640.639L69.1769 656.945L76.6682 659.084L62.6233 675.775L66.8231 661.193L59.3318 659.054L75.1103 640.639Z" fill="#C21264"/>
<path d="M75.1104 638.197C75.5353 638.197 75.9601 638.304 76.341 638.529C77.3617 639.125 77.811 640.36 77.4056 641.474L72.3708 655.318L77.3421 656.74C78.1382 656.964 78.7681 657.58 79.0123 658.371C79.2516 659.162 79.0807 660.026 78.5435 660.661L64.4937 677.353C63.7514 678.237 62.4866 678.466 61.4757 677.934C60.46 677.392 59.957 676.21 60.2793 675.101L63.8051 662.873L58.6677 661.403C57.8668 661.179 57.2369 660.558 56.9976 659.762C56.7534 658.962 56.939 658.097 57.481 657.467L73.2596 639.052C73.7333 638.495 74.4218 638.197 75.1104 638.197ZM67.7656 658.942C67.4482 658.717 67.1845 658.415 67.0038 658.058C66.6962 657.453 66.6522 656.749 66.8866 656.114L68.2247 652.427L63.6586 657.755L67.4873 658.849C67.585 658.869 67.6777 658.903 67.7656 658.942ZM72.3756 660.397L68.5128 659.294C68.4151 659.269 68.3272 659.235 68.2345 659.196C68.5324 659.406 68.7765 659.684 68.9572 660.007C69.2698 660.573 69.3479 661.242 69.1672 661.867L68.1417 665.422L72.3756 660.397Z" fill="#C21264"/>
</g>
<defs>
<filter id="filter0_d" x="0" y="0" width="136" height="1069.83" filterUnits="userSpaceOnUse" color-interpolation-filters="sRGB">
<feFlood flood-opacity="0" result="BackgroundImageFix"/>
<feColorMatrix in="SourceAlpha" type="matrix" values="0 0 0 0 0 0 0 0 0 0 0 0 0 0 0 0 0 0 127 0"/>
<feOffset dy="4"/>
<feGaussianBlur stdDeviation="2"/>
<feColorMatrix type="matrix" values="0 0 0 0 0 0 0 0 0 0 0 0 0 0 0 0 0 0 0.25 0"/>
<feBlend mode="normal" in2="BackgroundImageFix" result="effect1_dropShadow"/>
<feBlend mode="normal" in="SourceGraphic" in2="effect1_dropShadow" result="shape"/>
</filter>
<clipPath id="clip0">
<rect width="128" height="103" fill="white" transform="translate(4 805)"/>
</clipPath>
</defs>
</svg>
